<svg xmlns="http://www.w3.org/2000/svg" viewBox="0 0 900 180" width="900" height="180">
  <defs>
    <linearGradient id="bg" x1="0%" y1="0%" x2="100%" y2="100%">
      <stop offset="0%" style="stop-color:#0a0f1a;stop-opacity:1" />
      <stop offset="40%" style="stop-color:#0d1b2a;stop-opacity:1" />
      <stop offset="100%" style="stop-color:#1b2838;stop-opacity:1" />
    </linearGradient>
    <filter id="glow-cyan" x="-50%" y="-50%" width="200%" height="200%">
      <feGaussianBlur stdDeviation="3" result="blur"/>
      <feMerge><feMergeNode in="blur"/><feMergeNode in="SourceGraphic"/></feMerge>
    </filter>
    <filter id="glow-soft" x="-50%" y="-50%" width="200%" height="200%">
      <feGaussianBlur stdDeviation="6" result="blur"/>
      <feMerge><feMergeNode in="blur"/><feMergeNode in="SourceGraphic"/></feMerge>
    </filter>
    <linearGradient id="dna-strand1" x1="0%" y1="0%" x2="0%" y2="100%">
      <stop offset="0%" style="stop-color:#00d4aa;stop-opacity:0.9"/>
      <stop offset="100%" style="stop-color:#0088cc;stop-opacity:0.6"/>
    </linearGradient>
    <linearGradient id="dna-strand2" x1="0%" y1="0%" x2="0%" y2="100%">
      <stop offset="0%" style="stop-color:#6366f1;stop-opacity:0.8"/>
      <stop offset="100%" style="stop-color:#a855f7;stop-opacity:0.5"/>
    </linearGradient>
  </defs>

  <!-- Background -->
  <rect width="900" height="180" fill="url(#bg)"/>

  <!-- Subtle grid -->
  <g opacity="0.04" stroke="#00d4aa" stroke-width="0.5">
    <line x1="0" y1="40" x2="900" y2="40"/>
    <line x1="0" y1="80" x2="900" y2="80"/>
    <line x1="0" y1="120" x2="900" y2="120"/>
    <line x1="0" y1="160" x2="900" y2="160"/>
    <line x1="100" y1="0" x2="100" y2="180"/>
    <line x1="200" y1="0" x2="200" y2="180"/>
    <line x1="300" y1="0" x2="300" y2="180"/>
    <line x1="400" y1="0" x2="400" y2="180"/>
    <line x1="500" y1="0" x2="500" y2="180"/>
    <line x1="600" y1="0" x2="600" y2="180"/>
    <line x1="700" y1="0" x2="700" y2="180"/>
    <line x1="800" y1="0" x2="800" y2="180"/>
  </g>

  <!-- LEFT: DNA Double Helix -->
  <g transform="translate(60, -10)" filter="url(#glow-cyan)">
    <path d="M 0,0 C 15,20 35,30 25,60 C 15,90 35,100 25,130 C 15,160 35,170 25,190"
          fill="none" stroke="url(#dna-strand1)" stroke-width="2.5" stroke-linecap="round"/>
    <path d="M 50,0 C 35,20 15,30 25,60 C 35,90 15,100 25,130 C 35,160 15,170 25,190"
          fill="none" stroke="url(#dna-strand2)" stroke-width="2.5" stroke-linecap="round"/>
    <g stroke-width="1.2" opacity="0.6">
      <line x1="8" y1="15" x2="42" y2="15" stroke="#00d4aa"/>
      <line x1="18" y1="45" x2="32" y2="45" stroke="#6366f1"/>
      <line x1="22" y1="75" x2="28" y2="75" stroke="#a855f7"/>
      <line x1="18" y1="105" x2="32" y2="105" stroke="#00d4aa"/>
      <line x1="8" y1="135" x2="42" y2="135" stroke="#6366f1"/>
      <line x1="18" y1="165" x2="32" y2="165" stroke="#a855f7"/>
    </g>
    <g font-family="monospace" font-size="7" fill="#00d4aa" opacity="0.4">
      <text x="-5" y="18">A</text>
      <text x="47" y="18">T</text>
      <text x="-5" y="108">G</text>
      <text x="47" y="108">C</text>
    </g>
  </g>

  <!-- RIGHT: Molecular Structure -->
  <g transform="translate(770, 50)" opacity="0.35" filter="url(#glow-soft)">
    <polygon points="0,-35 30,-17 30,17 0,35 -30,17 -30,-17" fill="none" stroke="#00d4aa" stroke-width="1.5"/>
    <polygon points="0,-22 19,-11 19,11 0,22 -19,11 -19,-11" fill="none" stroke="#00d4aa" stroke-width="0.8" opacity="0.5"/>
    <circle cx="0" cy="-35" r="3" fill="#0d1b2a" stroke="#00d4aa" stroke-width="1"/>
    <circle cx="30" cy="-17" r="3" fill="#0d1b2a" stroke="#00d4aa" stroke-width="1"/>
    <circle cx="30" cy="17" r="3" fill="#0d1b2a" stroke="#00d4aa" stroke-width="1"/>
    <circle cx="0" cy="35" r="3" fill="#0d1b2a" stroke="#00d4aa" stroke-width="1"/>
    <circle cx="-30" cy="17" r="3" fill="#0d1b2a" stroke="#00d4aa" stroke-width="1"/>
    <circle cx="-30" cy="-17" r="3" fill="#0d1b2a" stroke="#00d4aa" stroke-width="1"/>
    <line x1="0" y1="-35" x2="0" y2="-60" stroke="#6366f1" stroke-width="1"/>
    <circle cx="0" cy="-63" r="2.5" fill="#6366f1" opacity="0.7"/>
    <line x1="30" y1="-17" x2="55" y2="-30" stroke="#6366f1" stroke-width="1"/>
    <circle cx="58" cy="-32" r="2.5" fill="#a855f7" opacity="0.7"/>
    <line x1="-30" y1="-17" x2="-55" y2="-30" stroke="#6366f1" stroke-width="1"/>
    <circle cx="-58" cy="-32" r="2.5" fill="#00d4aa" opacity="0.7"/>
  </g>

  <!-- Floating particles -->
  <g opacity="0.3">
    <circle cx="150" cy="40" r="1.5" fill="#00d4aa">
      <animate attributeName="opacity" values="0.2;0.6;0.2" dur="4s" repeatCount="indefinite"/>
    </circle>
    <circle cx="680" cy="60" r="1" fill="#6366f1">
      <animate attributeName="opacity" values="0.3;0.7;0.3" dur="3s" repeatCount="indefinite"/>
    </circle>
    <circle cx="550" cy="150" r="1.5" fill="#a855f7">
      <animate attributeName="opacity" values="0.2;0.5;0.2" dur="5s" repeatCount="indefinite"/>
    </circle>
    <circle cx="300" cy="35" r="1" fill="#00d4aa">
      <animate attributeName="opacity" values="0.4;0.8;0.4" dur="3.5s" repeatCount="indefinite"/>
    </circle>
    <circle cx="620" cy="130" r="1.2" fill="#6366f1">
      <animate attributeName="opacity" values="0.2;0.6;0.2" dur="4.5s" repeatCount="indefinite"/>
    </circle>
  </g>

  <!-- CENTER: Name -->
  <g transform="translate(450, 80)">
    <text x="0" y="0" text-anchor="middle" font-family="'Segoe UI', Helvetica, Arial, sans-serif" font-size="42" font-weight="700" fill="#e2e8f0" letter-spacing="1">
      Lysander Elgar
    </text>
    <text x="0" y="32" text-anchor="middle" font-family="monospace" font-size="9" fill="#334155" opacity="0.6" letter-spacing="3">
      ATCGATCGNNNATCGATCG
    </text>
  </g>

  <!-- Bottom accent line -->
  <rect x="0" y="176" width="900" height="4" fill="url(#dna-strand1)" opacity="0.6"/>
</svg>
